<?xml version="1.0" standalone="no"?>
<!DOCTYPE svg PUBLIC "-//W3C//DTD SVG 20010904//EN"
 "http://www.w3.org/TR/2001/REC-SVG-20010904/DTD/svg10.dtd">
<svg version="1.0" xmlns="http://www.w3.org/2000/svg"
 width="661.000000pt" height="360.000000pt" viewBox="0 0 661.000000 360.000000"
 preserveAspectRatio="xMidYMid meet">

<g transform="translate(0.000000,360.000000) scale(0.100000,-0.100000)"
fill="#000000" stroke="none">
<path d="M3339 3239 c24 -5 61 -17 82 -29 22 -11 39 -16 39 -11 0 13 -105 51
-138 50 -19 -1 -14 -4 17 -10z"/>
<path d="M3480 3179 c0 -5 -8 -9 -17 -9 -10 0 -25 -5 -33 -11 -11 -8 -9 -8 10
-3 36 11 240 5 273 -8 56 -22 72 -99 37 -177 -24 -53 -38 -49 -16 4 22 53 20
88 -6 111 -23 19 -23 19 -5 -2 23 -27 22 -45 -9 -136 -21 -65 -30 -79 -51 -84
-16 -4 -28 -2 -34 7 -7 11 -9 10 -9 -3 0 -23 -1 -23 -52 7 -24 14 -62 35 -85
46 -62 29 -57 38 22 52 17 2 14 6 -15 21 -19 10 -43 27 -53 37 -10 11 -24 19
-32 19 -24 0 -17 -27 12 -48 16 -12 23 -24 18 -31 -10 -18 -32 -10 -126 45
-84 50 -127 97 -108 120 18 22 96 26 154 9 58 -16 67 -28 36 -44 -10 -6 -21
-18 -25 -27 -4 -10 5 -7 25 10 27 23 40 26 103 26 74 0 93 -8 115 -45 11 -19
12 -19 9 -1 -5 35 -50 58 -113 57 -32 0 -70 6 -84 14 -46 24 -92 35 -153 35
-50 0 -63 -4 -85 -26 -20 -20 -24 -31 -19 -57 17 -82 18 -153 3 -190 -9 -20
-22 -37 -29 -37 -15 0 -78 97 -78 120 0 7 -3 11 -6 7 -23 -23 70 -150 233
-318 76 -79 121 -139 148 -198 18 -41 13 -73 -6 -38 -6 9 -14 15 -19 12 -5 -3
-35 11 -67 32 -72 47 -70 45 -56 50 7 3 -8 16 -35 30 -61 32 -89 59 -114 108
-11 22 -53 74 -94 115 -84 86 -108 133 -100 194 4 29 3 35 -3 21 -5 -11 -10
-37 -10 -57 -1 -30 -5 -38 -20 -38 -10 0 -37 -7 -61 -15 -33 -12 -51 -13 -86
-4 -62 16 -74 4 -74 -78 0 -66 -12 -101 -56 -159 -61 -79 -39 -133 75 -193 52
-27 92 -56 113 -83 70 -86 103 -121 146 -150 58 -40 65 -30 7 11 -24 17 -61
53 -82 79 -20 26 -53 64 -72 85 -19 20 -29 37 -22 37 14 0 71 -56 149 -145 27
-31 19 -18 -19 34 -73 97 -101 119 -189 156 -73 30 -120 69 -120 99 0 11 19
49 42 85 40 60 43 70 44 135 l1 71 59 -3 c35 -2 81 4 113 14 45 14 54 14 61 3
23 -39 98 -127 115 -135 18 -8 113 -138 114 -156 1 -10 -116 69 -125 84 -4 7
-8 26 -7 43 0 21 -1 23 -4 8 -2 -13 -7 -23 -9 -23 -3 0 -31 25 -62 55 -50 48
-62 55 -97 55 -40 0 -85 -22 -85 -41 0 -5 13 0 29 12 50 37 85 22 194 -84 72
-70 127 -112 227 -172 73 -44 153 -98 178 -120 55 -48 102 -111 102 -137 0
-15 -8 -10 -38 22 -22 22 -47 40 -58 40 -14 0 -11 -4 11 -15 73 -36 98 -136
50 -194 -14 -16 -36 -32 -48 -34 -12 -2 7 -5 42 -6 53 -1 70 -6 99 -27 44 -34
102 -41 172 -20 65 19 95 20 135 1 29 -13 28 -14 -25 -9 -33 3 -75 -1 -105 -9
-181 -52 -176 -51 -235 -34 -30 9 -75 31 -99 48 -38 29 -41 34 -25 40 12 5 -3
8 -39 8 -69 1 -120 21 -166 64 l-34 32 23 -33 23 -34 -33 17 c-54 28 -118 94
-145 150 -26 57 -45 157 -44 240 l0 50 34 -72 c19 -42 50 -88 72 -108 42 -39
115 -65 177 -64 34 1 29 3 -30 14 -123 22 -166 66 -234 238 -30 76 -73 122
-130 137 -25 6 -55 18 -68 27 -22 14 -23 13 -13 -5 6 -11 31 -25 58 -32 58
-16 111 -63 118 -104 2 -17 6 -84 8 -148 3 -104 1 -116 -12 -105 -12 10 -13 9
-6 -3 34 -57 108 -166 117 -171 6 -4 -9 -18 -33 -32 -94 -55 -124 -57 -224
-11 -31 15 -58 24 -60 22 -7 -7 89 -77 128 -93 48 -20 89 -19 167 5 36 11 68
20 71 20 3 0 -13 -37 -35 -82 -26 -52 -59 -101 -91 -132 -39 -39 -44 -47 -25
-41 36 11 82 40 110 70 25 27 151 71 176 61 22 -8 17 -85 -15 -278 -16 -95
-32 -222 -36 -283 -3 -60 -8 -148 -11 -193 l-6 -84 -28 34 c-20 24 -30 49 -34
88 -27 229 -92 327 -259 389 -89 32 -92 24 -4 -11 43 -17 97 -48 121 -69 48
-43 101 -135 111 -194 4 -22 9 -48 12 -57 9 -36 -13 -16 -40 35 -39 75 -141
178 -207 211 -8 4 -1 -3 15 -16 103 -79 176 -170 214 -265 22 -56 20 -66 -12
-53 -12 5 -59 19 -104 30 -128 34 -178 86 -242 250 -44 111 -110 220 -134 220
-5 0 8 -19 27 -42 22 -25 45 -69 58 -109 12 -38 24 -66 28 -64 4 2 15 -19 25
-48 48 -134 121 -198 260 -227 71 -15 137 -54 161 -94 9 -17 22 -34 27 -37 5
-4 12 -40 16 -80 5 -55 8 -9 13 186 5 239 8 277 42 470 37 216 42 270 27 294
-6 9 2 28 26 60 20 25 39 46 43 46 4 0 24 -15 45 -34 l39 -34 -32 -28 c-18
-16 -39 -29 -48 -29 -11 0 -12 -4 -4 -19 7 -14 6 -29 -5 -53 -22 -54 -62 -240
-82 -378 -19 -142 -23 -544 -5 -665 8 -59 9 -48 5 75 -5 140 -5 147 20 203 21
46 33 61 61 72 19 8 37 19 41 25 9 14 -5 12 -35 -5 -14 -8 -28 -14 -32 -15
-18 0 52 107 111 173 l65 72 -58 -55 c-31 -30 -71 -77 -89 -105 -37 -58 -47
-44 -28 41 16 69 59 135 115 173 48 33 62 50 25 30 -44 -23 -108 -91 -129
-137 -16 -32 -24 -71 -26 -125 -4 -87 -35 -170 -50 -133 -12 32 13 341 40 486
37 196 72 303 115 351 l36 40 37 -15 c56 -24 146 -20 230 9 95 33 152 32 245
-5 41 -17 77 -30 80 -30 13 0 -85 71 -123 90 -49 24 -100 25 -179 4 -65 -16
-116 -12 -135 11 -10 12 -9 15 4 15 9 0 16 7 16 15 0 10 -10 15 -27 15 -26 1
-27 1 -8 12 11 6 41 28 67 50 43 35 121 76 176 93 21 6 23 5 13 -13 -22 -42
-119 -119 -166 -132 -28 -8 -42 -17 -37 -22 10 -10 114 35 133 58 6 8 26 15
43 15 17 1 23 3 14 6 -25 6 -23 14 18 61 33 39 39 42 85 42 98 0 161 45 173
125 l6 40 -15 -46 c-8 -25 -23 -53 -34 -63 -31 -28 -91 -45 -156 -44 l-60 0
45 10 c76 16 126 37 151 64 22 24 24 34 24 127 0 104 6 127 44 161 25 23 28
61 5 70 -9 3 -48 5 -87 4 l-72 -2 60 -3 c109 -6 128 -19 84 -59 -39 -35 -49
-69 -49 -167 0 -136 -4 -140 -180 -182 -36 -9 -82 -27 -102 -40 -21 -14 -40
-25 -43 -25 -10 0 27 65 49 85 12 11 16 16 9 11 -31 -21 -23 10 30 113 34 67
58 129 62 158 12 102 28 161 62 227 19 38 37 90 40 117 5 44 3 51 -25 78 -17
18 -40 31 -54 30 l-23 0 25 -10 c74 -30 80 -86 20 -211 -30 -63 -43 -109 -56
-188 -15 -101 -56 -220 -76 -220 -5 0 -6 10 -3 23 4 12 9 30 11 40 3 9 0 17
-7 17 -16 0 -6 212 13 264 10 27 32 52 69 81 43 33 55 48 57 74 4 35 -12 61
-36 61 -8 0 -33 -15 -56 -33 -49 -40 -86 -61 -93 -53 -4 3 2 15 11 25 24 26
45 88 46 133 0 56 -49 103 -117 112 -29 4 -63 4 -75 1 -13 -3 -44 -2 -70 3
-27 5 -48 6 -48 1z m-269 -103 c37 -43 123 -98 255 -164 131 -66 138 -74 77
-97 -69 -25 -174 -83 -206 -113 l-27 -26 -80 81 -79 81 19 36 c10 20 21 59 25
87 l7 49 19 -24 c24 -31 81 -66 105 -66 11 0 3 8 -21 19 -63 30 -107 78 -125
140 -5 17 -7 31 -4 31 3 0 18 -16 35 -34z m214 -56 c3 -5 2 -10 -4 -10 -5 0
-13 5 -16 10 -3 6 -2 10 4 10 5 0 13 -4 16 -10z m481 -55 c12 -30 -7 -66 -47
-93 -23 -15 -63 -46 -89 -69 -66 -60 -107 -74 -237 -82 -62 -4 -116 -11 -120
-15 -5 -5 47 -6 115 -2 125 6 179 20 217 56 l21 20 -4 -158 c-4 -177 -11 -232
-42 -315 -27 -73 -112 -168 -154 -172 -16 -2 -33 -8 -39 -14 -27 -27 -25 -7 3
35 18 25 29 48 26 51 -3 4 -6 1 -6 -5 0 -7 -3 -12 -7 -12 -5 0 -9 17 -11 38
-1 20 -18 69 -37 109 -19 39 -35 80 -35 90 0 30 -44 115 -89 171 -44 56 -45
67 -3 84 27 11 27 11 4 17 -20 5 -17 9 25 33 27 14 115 54 198 88 149 62 181
79 243 132 36 31 60 36 68 13z m-788 -835 c17 -11 32 -24 32 -29 0 -5 -15 -11
-32 -14 -18 -2 -63 -11 -99 -20 -49 -11 -80 -12 -115 -6 -72 14 -77 28 -8 23
54 -5 64 -2 119 30 33 20 62 36 65 36 3 0 20 -9 38 -20z m145 -57 c26 -3 47
-9 47 -13 0 -33 -87 -91 -168 -110 -23 -6 -58 -25 -77 -41 -39 -34 -45 -31
-16 9 10 15 29 51 42 81 25 58 70 95 104 86 11 -3 41 -8 68 -12z"/>
<path d="M3358 2913 c7 -3 16 -2 19 1 4 3 -2 6 -13 5 -11 0 -14 -3 -6 -6z"/>
<path d="M3440 2893 c8 -3 24 -10 35 -15 20 -9 20 -9 1 6 -11 9 -27 16 -35 15
-14 0 -14 -1 -1 -6z"/>
<path d="M3578 2360 c-2 -50 0 -90 5 -90 4 0 7 41 7 90 0 50 -2 90 -4 90 -3 0
-6 -41 -8 -90z"/>
<path d="M3701 2384 c0 -11 3 -14 6 -6 3 7 2 16 -1 19 -3 4 -6 -2 -5 -13z"/>
<path d="M3652 2258 c-13 -22 -39 -57 -59 -79 -19 -21 -32 -39 -28 -39 19 0
124 144 114 155 -3 2 -15 -14 -27 -37z"/>
<path d="M3561 2234 c0 -11 3 -14 6 -6 3 7 2 16 -1 19 -3 4 -6 -2 -5 -13z"/>
<path d="M2994 3149 c-43 -12 -56 -31 -51 -76 l4 -38 1 42 c1 23 8 45 15 50 6
4 41 13 77 19 53 10 58 12 25 12 -22 0 -54 -4 -71 -9z"/>
<path d="M3540 3055 c10 -13 9 -19 -6 -38 l-19 -22 25 20 c14 11 27 21 29 22
7 4 -21 33 -31 33 -6 0 -5 -7 2 -15z"/>
<path d="M3336 3047 c3 -10 9 -15 12 -12 3 3 0 11 -7 18 -10 9 -11 8 -5 -6z"/>
<path d="M3611 3017 c-7 -10 -18 -16 -26 -13 -7 2 -16 -2 -19 -10 -8 -22 16
-17 54 11 22 17 37 22 44 15 15 -15 -30 -57 -78 -74 -23 -8 -33 -15 -23 -15
10 -1 27 4 38 9 15 9 19 7 20 -7 0 -14 2 -15 6 -3 3 8 17 28 30 44 13 16 23
36 21 45 -5 23 -53 21 -67 -2z"/>
<path d="M3908 2723 c6 -2 18 -2 25 0 6 3 1 5 -13 5 -14 0 -19 -2 -12 -5z"/>
<path d="M2861 2520 c14 -31 19 -36 19 -24 0 6 -7 19 -16 30 -14 18 -14 18 -3
-6z"/>
<path d="M3310 2526 c0 -2 7 -7 16 -10 8 -3 12 -2 9 4 -6 10 -25 14 -25 6z"/>
<path d="M3850 2460 c-17 -33 -28 -60 -25 -60 2 0 18 27 35 60 17 33 28 60 25
60 -2 0 -18 -27 -35 -60z"/>
<path d="M3350 2506 c0 -2 8 -10 18 -17 15 -13 16 -12 3 4 -13 16 -21 21 -21
13z"/>
<path d="M2890 2455 c0 -5 5 -17 10 -25 5 -8 10 -10 10 -5 0 6 -5 17 -10 25
-5 8 -10 11 -10 5z"/>
<path d="M2920 2381 c0 -6 4 -13 10 -16 6 -3 7 1 4 9 -7 18 -14 21 -14 7z"/>
<path d="M3328 2333 c12 -2 30 -2 40 0 9 3 -1 5 -23 4 -22 0 -30 -2 -17 -4z"/>
<path d="M3840 2150 c-8 -5 -50 -24 -94 -42 -43 -18 -72 -34 -64 -36 8 -1 43
11 79 28 44 21 79 30 114 30 30 0 45 4 40 9 -16 15 -59 21 -75 11z"/>
<path d="M2725 1660 c11 -5 27 -9 35 -9 9 0 8 4 -5 9 -11 5 -27 9 -35 9 -9 0
-8 -4 5 -9z"/>
<path d="M3620 1478 c-51 -164 -79 -203 -177 -244 -32 -13 -51 -24 -43 -24 31
0 116 48 148 84 42 48 51 42 16 -10 -15 -21 -19 -32 -10 -24 23 19 48 68 41
80 -3 6 -2 10 3 10 5 0 17 39 26 86 10 48 22 98 27 112 5 14 8 27 5 29 -3 3
-19 -42 -36 -99z"/>
<path d="M3545 1560 c-3 -6 1 -7 9 -4 18 7 21 14 7 14 -6 0 -13 -4 -16 -10z"/>
<path d="M3494 1534 c-18 -14 -18 -14 6 -3 31 14 36 19 24 19 -6 0 -19 -7 -30
-16z"/>
<path d="M2720 1387 c0 -37 110 -167 141 -167 6 0 -9 15 -33 33 -24 18 -58 57
-75 87 -18 30 -33 51 -33 47z"/>
<path d="M3495 1229 c-16 -10 -25 -19 -19 -19 7 0 22 9 35 20 30 24 23 24 -16
-1z"/>
<path d="M2958 1193 c6 -2 18 -2 25 0 6 3 1 5 -13 5 -14 0 -19 -2 -12 -5z"/>
<path d="M3203 875 c0 -27 2 -38 4 -22 2 15 2 37 0 50 -2 12 -4 0 -4 -28z"/>
<path d="M3213 775 c0 -22 2 -30 4 -17 2 12 2 30 0 40 -3 9 -5 -1 -4 -23z"/>
<path d="M3262 720 c0 -19 2 -27 5 -17 2 9 2 25 0 35 -3 9 -5 1 -5 -18z"/>
<path d="M3222 695 c0 -16 2 -22 5 -12 2 9 2 23 0 30 -3 6 -5 -1 -5 -18z"/>
<path d="M3272 650 c0 -19 2 -27 5 -17 2 9 2 25 0 35 -3 9 -5 1 -5 -18z"/>
<path d="M3282 590 c0 -14 2 -19 5 -12 2 6 2 18 0 25 -3 6 -5 1 -5 -13z"/>
</g>
</svg>
